<svg width="480" height="480" viewBox="0 0 480 480" fill="none" xmlns="http://www.w3.org/2000/svg">
<rect x="82" y="67" width="368" height="339" rx="32" fill="#F7FAFC"/>
<path d="M408 0C427.096 0 445.409 7.58569 458.912 21.0883C472.414 34.5909 480 52.9044 480 72V408C480 427.096 472.414 445.409 458.912 458.912C445.409 472.414 427.096 480 408 480H72C52.9044 480 34.5909 472.414 21.0883 458.912C7.58569 445.409 0 427.096 0 408V72C0 52.9044 7.58569 34.5909 21.0883 21.0883C34.5909 7.58569 52.9044 0 72 0H408ZM240 120H192C185.635 120 179.53 122.529 175.029 127.029C170.529 131.53 168 137.635 168 144V336C168 342.365 170.529 348.47 175.029 352.971C179.53 357.471 185.635 360 192 360L194.808 359.832C200.646 359.144 206.029 356.338 209.935 351.945C213.841 347.552 215.999 341.878 216 336V264H240C259.096 264 277.409 256.414 290.912 242.912C304.414 229.409 312 211.096 312 192C312 172.904 304.414 154.591 290.912 141.088C277.409 127.586 259.096 120 240 120ZM240 168C246.365 168 252.47 170.529 256.971 175.029C261.471 179.53 264 185.635 264 192C264 198.365 261.471 204.47 256.971 208.971C252.47 213.471 246.365 216 240 216H216V168H240Z" fill="#319795"/>
</svg>
